<?xml version="1.0" standalone="no"?>
<!DOCTYPE svg PUBLIC "-//W3C//DTD SVG 20010904//EN"
 "http://www.w3.org/TR/2001/REC-SVG-20010904/DTD/svg10.dtd">
<svg version="1.0" xmlns="http://www.w3.org/2000/svg"
 width="500.000000pt" height="500.000000pt" viewBox="0 0 500.000000 500.000000"
 preserveAspectRatio="xMidYMid meet">

<g transform="translate(0.000000,500.000000) scale(0.100000,-0.100000)"
fill="#000000" stroke="none">
<path d="M0 2500 l0 -2500 2500 0 2500 0 0 2500 0 2500 -2500 0 -2500 0 0
-2500z m2686 1446 c65 -23 829 -358 924 -406 120 -60 219 -173 262 -298 40
-119 34 -193 -61 -717 -45 -253 -86 -464 -91 -468 -4 -5 -18 -7 -31 -5 -29 4
-36 -49 62 503 88 497 94 561 59 666 -38 111 -123 210 -228 263 -84 43 -883
391 -935 407 -75 24 -178 24 -254 1 -66 -22 -857 -368 -948 -416 -121 -63
-201 -173 -231 -316 -18 -86 -20 -69 48 -449 39 -219 48 -288 39 -300 -39 -55
-33 -113 19 -166 24 -25 33 -46 44 -108 7 -42 11 -79 8 -82 -8 -8 -50 -6 -56
3 -9 15 -167 918 -173 989 -16 204 98 399 292 496 93 46 850 379 915 402 94
34 240 34 336 1z m-59 -145 c109 -34 927 -402 972 -437 91 -70 141 -172 141
-288 0 -52 -47 -353 -57 -365 -2 -3 -8 0 -15 7 -7 7 -36 9 -88 5 -93 -7 -138
6 -191 54 -39 35 -39 36 -39 108 0 67 -23 221 -34 233 -3 2 -52 -3 -108 -11
-91 -14 -114 -15 -196 -2 -52 7 -129 17 -173 21 -44 4 -78 9 -75 11 2 2 81 11
176 19 95 8 200 20 234 28 33 8 73 12 89 9 15 -3 27 -2 27 2 0 4 -18 41 -40
83 -51 98 -113 177 -190 241 -66 55 -79 58 -171 41 -43 -9 -90 -7 -238 12
-101 12 -180 23 -175 25 5 1 90 9 188 17 98 8 183 19 188 24 11 11 -39 33
-133 58 -89 24 -309 24 -399 0 -99 -27 -177 -63 -266 -122 -76 -50 -180 -149
-204 -194 -13 -25 -4 -25 140 -1 99 16 111 16 225 -1 66 -10 141 -18 168 -18
26 0 47 -4 47 -8 0 -4 -75 -14 -167 -21 -92 -7 -197 -19 -233 -27 -40 -10 -98
-14 -150 -12 l-84 3 -29 -60 c-31 -64 -75 -220 -66 -230 4 -3 37 -1 75 5 55 9
92 8 198 -7 l131 -18 -85 -8 c-47 -4 -130 -14 -185 -22 -55 -8 -110 -15 -122
-15 -22 0 -23 -4 -23 -72 -1 -73 -1 -73 -37 -96 -27 -17 -43 -21 -67 -16 -51
11 -163 6 -201 -10 -19 -8 -35 -14 -35 -13 0 1 -14 79 -30 172 -26 149 -29
177 -19 229 18 99 64 176 139 231 45 33 866 402 970 436 72 23 144 24 217 0z
m153 -808 c52 -21 79 -51 95 -107 8 -27 14 -51 12 -52 -2 -2 -50 1 -108 6 -57
6 -220 13 -361 17 -176 4 -258 10 -258 17 1 30 48 93 84 110 73 36 457 42 536
9z m430 -101 c36 -18 100 -93 100 -118 0 -11 -19 -14 -92 -13 -65 1 -84 4 -63
9 24 6 17 8 -32 9 -62 1 -63 1 -81 39 -11 20 -22 49 -26 65 l-6 27 82 0 c59 0
93 -5 118 -18z m-721 -83 c63 -6 164 -21 225 -33 l111 -22 -160 -7 c-163 -6
-239 -20 -321 -59 -49 -23 -66 -17 -64 20 3 46 1 50 -37 63 -26 8 -96 10 -243
7 -212 -5 -218 0 -30 27 118 16 368 18 519 4z m-702 -45 c-3 -3 -12 -4 -19 -1
-8 3 -5 6 6 6 11 1 17 -2 13 -5z m-333 -70 c24 -24 20 -80 -6 -98 -30 -21 -54
-20 -78 4 -24 24 -26 67 -3 92 20 22 66 24 87 2z m1004 -28 c18 -23 28 -25
243 -43 l224 -18 -105 -6 c-58 -4 -161 -7 -229 -8 -93 -1 -127 -4 -135 -15
-22 -28 -54 -29 -81 -2 -30 30 -32 69 -5 96 27 27 64 25 88 -4z m1130 3 c-24
-14 -286 -27 -393 -19 -103 7 -84 10 170 19 99 4 194 8 210 9 24 1 27 -1 13
-9z m-1744 -95 c16 -40 -5 -124 -31 -124 -12 0 -14 7 -9 31 3 17 6 49 6 70 0
40 22 55 34 23z m66 -16 c0 -18 4 -50 9 -70 9 -37 8 -38 -21 -38 -30 0 -30 1
-24 38 3 20 6 52 6 70 0 22 5 32 15 32 10 0 15 -10 15 -32z m70 0 c0 -18 3
-50 6 -70 5 -31 4 -38 -9 -38 -24 0 -46 86 -31 124 11 29 34 18 34 -16z m-202
-7 c2 -13 1 -39 -3 -57 -4 -26 -11 -34 -27 -34 -16 0 -19 4 -14 23 3 12 6 39
6 60 0 31 3 38 18 35 9 -2 19 -14 20 -27z m272 0 c0 -16 3 -43 6 -60 6 -27 4
-31 -14 -31 -16 0 -22 9 -27 40 -8 46 1 80 21 80 9 0 14 -10 14 -29z m-342
-22 c1 -19 -2 -41 -8 -49 -8 -13 -14 -12 -47 5 -47 25 -48 45 -3 67 45 23 54
19 58 -23z m436 16 c24 -18 15 -40 -23 -59 l-30 -16 -7 35 c-11 62 10 76 60
40z m-706 -36 c4 -30 -22 -46 -44 -28 -15 12 -19 41 -7 53 16 16 48 1 51 -25z
m990 -8 c8 -4 12 -19 10 -32 -2 -18 -9 -24 -28 -24 -19 0 -26 6 -28 24 -3 20
11 41 28 41 3 0 11 -4 18 -9z m582 -22 l285 -2 -253 -20 c-220 -18 -253 -23
-248 -36 2 -9 12 -34 20 -56 34 -88 10 -201 -54 -259 -45 -40 -82 -46 -130
-21 -67 35 -108 170 -80 269 23 82 95 143 155 130 11 -2 148 -4 305 -5z m490
-41 c37 -62 21 -181 -29 -208 -30 -16 -32 -12 -6 14 46 46 55 147 19 204 -8
12 -12 22 -9 22 3 0 14 -15 25 -32z m145 -17 c-8 -17 -20 -31 -25 -31 -5 0 1
15 13 34 27 41 34 39 12 -3z m-177 -33 c18 -18 15 -74 -5 -93 -16 -16 -18 -16
-35 5 -39 48 -2 130 40 88z m-1288 -32 c19 -9 53 -27 74 -40 l39 -24 -44 -12
c-46 -13 -568 -16 -639 -4 -66 12 -104 57 -67 81 20 13 201 21 407 18 155 -2
203 -6 230 -19z m755 -44 c1 -1 48 4 103 13 56 8 108 15 114 14 10 0 -226 -78
-239 -79 -2 0 -3 21 -3 48 1 40 2 44 12 27 6 -11 12 -21 13 -23z m-1480 18 c9
-14 -40 -60 -65 -60 -11 0 -29 9 -40 20 -37 37 -25 50 46 50 29 0 56 -4 59
-10z m1010 -30 c9 -14 -40 -60 -65 -60 -11 0 -29 9 -40 20 -37 37 -25 50 46
50 29 0 56 -4 59 -10z m-350 -342 c2 -2 1 -17 -4 -34 -8 -29 -19 -33 -65 -23
-34 7 -27 -17 9 -34 71 -34 69 -102 -5 -140 -33 -17 -104 -18 -130 -2 -7 4 5
59 15 73 1 1 19 -5 40 -14 55 -23 69 -2 16 25 -99 51 -46 168 72 158 26 -2 49
-6 52 -9z m489 -85 c-8 -48 -14 -103 -14 -121 l0 -33 -47 3 c-46 3 -47 3 -68
56 -25 61 -35 58 -35 -10 l0 -48 -40 0 c-37 0 -40 2 -35 23 5 24 25 184 25
204 0 9 15 13 44 13 l44 0 23 -57 c21 -52 24 -55 30 -33 4 14 7 39 8 57 1 28
5 32 34 35 17 2 35 2 38 1 3 -1 0 -42 -7 -90z m485 88 c10 -6 11 -16 4 -37 -8
-24 -14 -28 -53 -28 -41 -1 -45 -3 -54 -34 -6 -22 -5 -41 3 -58 10 -22 17 -26
46 -22 33 4 35 2 35 -24 0 -36 -34 -53 -85 -44 -59 11 -85 45 -85 108 0 64 27
113 73 133 36 16 95 19 116 6z m-739 -15 c0 -37 -12 -46 -61 -46 -37 0 -49 -4
-49 -15 0 -11 11 -15 41 -15 33 0 40 -3 35 -16 -3 -9 -6 -22 -6 -30 0 -10 -12
-14 -40 -14 -29 0 -40 -4 -40 -15 0 -11 12 -15 51 -15 43 0 50 -3 45 -16 -3
-9 -6 -22 -6 -30 0 -11 -19 -14 -90 -14 -89 0 -90 0 -85 23 4 19 25 189 25
210 0 4 41 7 90 7 71 0 90 -3 90 -14z m487 -71 c6 -44 14 -97 18 -117 l5 -38
-40 0 c-33 0 -40 3 -40 20 0 16 -7 20 -34 20 -25 0 -35 -5 -39 -20 -4 -15 -14
-20 -41 -20 -20 0 -36 3 -36 8 0 4 21 58 47 120 l48 112 50 -2 50 -3 12 -80z
m-1296 -348 c69 -77 87 -87 489 -265 355 -157 397 -172 490 -172 93 0 135 14
490 172 387 171 425 192 492 268 45 51 58 60 86 60 l34 0 -19 -31 c-41 -63
-98 -123 -154 -159 -58 -37 -671 -314 -775 -350 -72 -25 -217 -27 -294 -4 -61
18 -648 276 -753 331 -68 36 -153 117 -190 181 l-18 32 33 0 c28 0 42 -10 89
-63z m1878 47 c-31 -38 -115 -80 -439 -224 -373 -164 -424 -180 -517 -163 -90
17 -766 319 -817 365 l-41 37 914 1 c832 0 912 -1 900 -16z"/>
<path d="M2750 2970 c38 -17 68 -49 80 -86 7 -19 16 -34 21 -34 12 0 11 5 -5
43 -18 42 -54 74 -91 81 -29 6 -29 6 -5 -4z"/>
<path d="M2373 2883 c37 -2 97 -2 135 0 37 2 6 3 -68 3 -74 0 -105 -1 -67 -3z"/>
<path d="M1418 2684 c24 -17 29 -53 10 -72 -9 -9 -9 -12 0 -12 12 0 32 31 32
49 0 15 -37 51 -52 51 -7 0 -2 -7 10 -16z"/>
<path d="M2418 2660 c16 -7 22 -18 22 -40 0 -22 -6 -33 -22 -40 -15 -6 -17 -9
-7 -9 19 -1 49 30 49 51 0 19 -32 48 -51 47 -8 0 -4 -4 9 -9z"/>
<path d="M2610 2412 c-50 -51 -65 -154 -31 -228 20 -45 63 -84 92 -84 29 0 88
58 99 98 44 158 -67 306 -160 214z m106 -109 c4 -13 2 -35 -5 -49 -20 -44 -61
-23 -61 33 0 54 54 67 66 16z"/>
<path d="M1782 2343 c48 -2 129 -2 180 0 51 1 12 3 -87 3 -99 0 -141 -2 -93
-3z"/>
<path d="M1705 2320 c39 -4 135 -7 215 -7 l145 0 -130 8 c-71 3 -168 7 -215 6
l-85 0 70 -7z"/>
<path d="M1805 2291 c77 -4 174 -4 215 0 44 3 -13 6 -140 6 -198 0 -204 -1
-75 -6z"/>
<path d="M2757 1873 c-2 -10 -8 -26 -12 -35 -5 -13 -2 -18 9 -18 12 0 16 10
16 35 0 38 -5 45 -13 18z"/>
<path d="M2290 1496 c0 -9 8 -16 18 -16 16 0 17 -6 11 -57 -6 -52 2 -86 16
-72 3 3 8 33 11 68 6 54 9 61 25 56 13 -4 19 -1 19 9 0 9 -8 16 -19 16 -10 0
-33 3 -50 6 -24 5 -31 3 -31 -10z"/>
<path d="M2437 1494 c-4 -4 -7 -41 -7 -81 0 -55 3 -74 13 -71 7 3 13 29 15 73
3 64 -5 94 -21 79z"/>
<path d="M2657 1493 c-9 -15 -5 -118 5 -130 14 -18 63 -16 78 2 13 16 6 65
-10 65 -6 0 -5 8 2 19 9 15 9 23 -1 35 -14 16 -66 22 -74 9z m53 -27 c0 -21
-21 -31 -30 -15 -5 7 -6 17 -4 21 9 14 34 9 34 -6z m5 -71 c0 -11 -8 -21 -17
-23 -14 -3 -18 3 -18 23 0 20 4 26 18 23 9 -2 17 -12 17 -23z"/>
<path d="M2522 1478 c-15 -15 -16 -38 -1 -38 7 0 18 8 25 18 10 14 15 15 25 4
11 -10 6 -19 -24 -50 -51 -53 -49 -72 7 -72 25 0 48 5 51 10 4 6 -8 10 -29 10
-44 0 -46 12 -5 40 24 18 30 28 27 54 -3 26 -7 31 -33 34 -17 2 -36 -3 -43
-10z"/>
</g>
</svg>
